<?xml version="1.0" encoding="UTF-8"?>
<svg version="1.1" viewBox="0 0 2000 2000" width="100" height="60" xmlns="http://www.w3.org/2000/svg">
<path transform="translate(244,796)" d="m0 0h24l35 3 29 5 31 8 33 11 26 11 15 8 24 16v5l-10 19-26 52-10 19-13 26-5-1-15-9-16-8-27-11-28-9-25-5-9-1h-25l-18 3-15 5-13 8-6 5-7 10-5 12-2 12 1 13 3 8 6 9 5 6 18 13 21 12 21 11 79 35 20 10 23 14 18 13 13 11 11 9 16 16 9 11 9 13 8 14 8 19 5 20 2 19v22l-2 20-3 19-7 26-10 23-9 16-10 14-11 13-8 8-13 10-14 9-16 9-19 9-22 8-26 7-21 4-26 3-13 1h-48l-31-3-29-5-25-6-26-8-26-11-34-17-24-14-9-6v-56l12-19 10-17 17-28 14-24 5 2 18 14 17 11 16 9 23 12 21 10 18 7 22 6 13 2h31l20-3 12-3 13-5 12-7 9-9 7-12 4-15v-19l-4-13-7-11-10-10-24-16-18-10-22-11-31-14-16-8-25-12-23-13-17-12-10-8-13-11-13-13-11-14-10-14-11-21-7-20-4-17-2-18v-18l3-26 5-22 8-22 10-19 12-17 9-11 19-19 13-10 17-12 16-9 16-8 18-7 23-6 25-4z"/>
<path transform="translate(921,910)" d="m0 0h26l19 1 18 3 29 9 21 9 17 9 12 8 14 10 11 10 8 7 9 9 9 11 10 14 11 18 8 15 8 20 7 23 1-1v-25h142l1 1v59l5-5 12-14 11-11 11-9 13-10 16-9 21-8 16-4 18-2h16l24 3 22 6 16 6 17 9 1 5-19 39-13 26-10 21-16 32-11-7-14-7-17-5-11-2-11-1h-18l-19 3-15 6-11 7-10 9-7 10-9 19-6 19-1 5-1 224-3 1h-140l-1-51v-230l-5 19-10 25-10 19-12 18-11 14-11 12-17 17-13 10-15 10-29 15-21 8-28 7-12 2-12 1h-41l-19-2-27-6-21-8-27-13-24-16-10-8-10-9-11-11-9-11-11-14-9-14-6-11 2-4 19-10 21-11 5 1 5 10 12 17 13 15 9 9 16 12 13 8 16 9 30 10 17 4 22 2h14l18-2 21-5 20-7 16-7 16-9 13-10 10-9 8-7 9-10 12-17 10-18 9-22 5-19 3-17 1-13v-13l-3-26-4-17-8-24-11-21-13-19-12-13-13-13-17-12-17-10-15-7-18-6-26-5-9-1h-32l-23 4-20 6-18 8-14 7-14 10-13 11-13 12-11 14-7 10-8 14-5-1-17-8-16-8-8-5 1-5 11-19 12-16 9-10 7-8 11-11 11-9 18-13 21-12 15-7 19-7 23-6 14-2z"/>
<path transform="translate(1676,1048)" d="m0 0h21l25 2 20 3 21 5 18 6 20 9 16 9 17 12 14 12 12 12 11 14 10 16 8 16 6 14 7 24 4 22 2 18 1 19v25l-1 1-303 1 1 2 2 17 4 15 7 14 8 10 11 9 18 10 14 5 17 3h24l26-4 16-6 11-6 12-9 13-12 8-8 6 2 21 10 17 9 23 11 17 9 19 9-1 6-12 17-8 10-12 13-13 12-18 13-21 12-16 7-27 9-22 5-19 3-22 2h-42l-26-3-25-6-22-8-19-9-18-11-16-12-14-12-19-19-11-14-12-18-12-23-7-19-6-25-2-13-1-12v-30l3-25 5-21 7-20 10-21 10-16 12-16 14-15 13-13 11-9 16-12 21-12 14-7 25-9 22-5 21-3zm-2 93-17 4-11 5-10 6-8 7-9 12-5 11-4 15v7l10 1h147l1-1-1-10-5-15-6-11-8-10-11-9-16-8-10-3-7-1z"/>
<path transform="translate(503,906)" d="m0 0h105l37 1 1 119-1 34h87l1 1v54h162l-7-8-37-37 1-4h2l2-4 3-3h2l1-3 7-6 14-14 2-3 4 2 89 89 5 9 1 3v10l-5 10-9 10-32 32-1 2h-2l-2 4-44 44-4 1-12-13-22-22 2-5 10-10h2l2-4 28-28-161 1-1 1-87 1v132l1 17 3 15 5 12 6 7 7 4 4 1h14l14-4 14-7 2 3 6 21 17 55 10 33-1 4-19 9-24 8-25 5-17 2h-37l-21-3-18-5-20-9-13-9-10-9-8-8-10-15-11-23-5-15-5-23-2-16-1-22v-161h-59l-1-1v-108h60v-153z"/>
</svg>
