<svg xmlns="http://www.w3.org/2000/svg" xmlns:xlink="http://www.w3.org/1999/xlink" width="500" zoomAndPan="magnify" viewBox="0 0 375 374.999991" height="500" preserveAspectRatio="xMidYMid meet" version="1.0"><defs><filter x="0%" y="0%" width="100%" height="100%" id="8283663e26"><feColorMatrix values="0 0 0 0 1 0 0 0 0 1 0 0 0 0 1 0 0 0 1 0" color-interpolation-filters="sRGB"/></filter><g/><mask id="4e2a0e1ffc"><g filter="url(#8283663e26)"><rect x="-37.5" width="450" fill="#000000" y="-37.499999" height="449.999989" fill-opacity="0.48"/></g></mask><clipPath id="d9fd6b8efa"><rect x="0" width="372" y="0" height="127"/></clipPath></defs><g fill="#f18d21" fill-opacity="1"><g transform="translate(211.685041, 203.230347)"><g/></g></g><g fill="#f18d21" fill-opacity="1"><g transform="translate(228.348677, 203.230347)"><g><path d="M 14.875 -18.28125 C 17.601562 -18.28125 19.921875 -17.328125 21.828125 -15.421875 C 23.742188 -13.515625 24.703125 -11.191406 24.703125 -8.453125 C 24.703125 -5.773438 23.742188 -3.484375 21.828125 -1.578125 C 19.921875 0.328125 17.601562 1.28125 14.875 1.28125 C 12.195312 1.28125 9.898438 0.328125 7.984375 -1.578125 C 6.078125 -3.484375 5.125 -5.773438 5.125 -8.453125 C 5.125 -11.191406 6.078125 -13.515625 7.984375 -15.421875 C 9.898438 -17.328125 12.195312 -18.28125 14.875 -18.28125 Z M 14.875 -18.28125 "/></g></g></g><g mask="url(#4e2a0e1ffc)"><g transform="matrix(1, 0, 0, 1, 0, 111)"><g clip-path="url(#d9fd6b8efa)"><g fill="#f18d21" fill-opacity="1"><g transform="translate(0.629627, 90.701789)"><g><path d="M 28.546875 -53.265625 C 31.503906 -53.265625 34.429688 -52.925781 37.328125 -52.25 C 40.222656 -51.582031 42.375 -50.914062 43.78125 -50.25 L 45.90625 -49.234375 L 40.046875 -37.53125 C 36.015625 -39.6875 32.179688 -40.765625 28.546875 -40.765625 C 26.535156 -40.765625 25.109375 -40.546875 24.265625 -40.109375 C 23.421875 -39.671875 23 -38.84375 23 -37.625 C 23 -37.363281 23.03125 -37.097656 23.09375 -36.828125 C 23.164062 -36.554688 23.300781 -36.300781 23.5 -36.0625 C 23.707031 -35.832031 23.894531 -35.628906 24.0625 -35.453125 C 24.226562 -35.285156 24.515625 -35.101562 24.921875 -34.90625 C 25.328125 -34.707031 25.644531 -34.554688 25.875 -34.453125 C 26.113281 -34.347656 26.5 -34.195312 27.03125 -34 C 27.570312 -33.800781 27.976562 -33.648438 28.25 -33.546875 C 28.519531 -33.441406 28.972656 -33.289062 29.609375 -33.09375 C 30.242188 -32.894531 30.734375 -32.757812 31.078125 -32.6875 C 33.160156 -32.082031 34.972656 -31.410156 36.515625 -30.671875 C 38.066406 -29.929688 39.695312 -28.921875 41.40625 -27.640625 C 43.125 -26.367188 44.453125 -24.753906 45.390625 -22.796875 C 46.335938 -20.847656 46.8125 -18.628906 46.8125 -16.140625 C 46.8125 -4.367188 38.640625 1.515625 22.296875 1.515625 C 18.597656 1.515625 15.082031 0.941406 11.75 -0.203125 C 8.425781 -1.347656 6.023438 -2.488281 4.546875 -3.625 L 2.328125 -5.453125 L 9.578125 -17.65625 C 10.117188 -17.1875 10.828125 -16.628906 11.703125 -15.984375 C 12.578125 -15.347656 14.15625 -14.472656 16.4375 -13.359375 C 18.726562 -12.253906 20.710938 -11.703125 22.390625 -11.703125 C 26.097656 -11.703125 27.953125 -12.945312 27.953125 -15.4375 C 27.953125 -16.582031 27.476562 -17.472656 26.53125 -18.109375 C 25.59375 -18.742188 23.992188 -19.460938 21.734375 -20.265625 C 19.484375 -21.078125 17.71875 -21.820312 16.4375 -22.5 C 13.21875 -24.175781 10.664062 -26.070312 8.78125 -28.1875 C 6.894531 -30.3125 5.953125 -33.125 5.953125 -36.625 C 5.953125 -41.875 7.984375 -45.957031 12.046875 -48.875 C 16.117188 -51.800781 21.617188 -53.265625 28.546875 -53.265625 Z M 28.546875 -53.265625 "/></g></g></g><g fill="#f18d21" fill-opacity="1"><g transform="translate(42.394819, 90.701789)"><g><path d="M 9.078125 -51.75 L 9.078125 -71.03125 L 26.9375 -71.03125 L 26.9375 -51.75 L 37.828125 -51.75 L 37.828125 -38.140625 L 26.9375 -38.140625 L 26.9375 -21.6875 C 26.9375 -16.914062 28.28125 -14.53125 30.96875 -14.53125 C 31.644531 -14.53125 32.351562 -14.660156 33.09375 -14.921875 C 33.832031 -15.191406 34.40625 -15.460938 34.8125 -15.734375 L 35.40625 -16.140625 L 39.859375 -1.71875 C 36.015625 0.4375 31.640625 1.515625 26.734375 1.515625 C 23.367188 1.515625 20.472656 0.925781 18.046875 -0.25 C 15.628906 -1.425781 13.796875 -3.003906 12.546875 -4.984375 C 11.304688 -6.972656 10.414062 -9.0625 9.875 -11.25 C 9.34375 -13.4375 9.078125 -15.773438 9.078125 -18.265625 L 9.078125 -38.140625 L 1.609375 -38.140625 L 1.609375 -51.75 Z M 9.078125 -51.75 "/></g></g></g><g fill="#f18d21" fill-opacity="1"><g transform="translate(74.374232, 90.701789)"><g><path d="M 10.953125 -6.15625 C 5.203125 -11.269531 2.328125 -17.828125 2.328125 -25.828125 C 2.328125 -33.828125 5.316406 -40.398438 11.296875 -45.546875 C 17.285156 -50.691406 24.6875 -53.265625 33.5 -53.265625 C 42.175781 -53.265625 49.488281 -50.675781 55.4375 -45.5 C 61.394531 -40.320312 64.375 -33.765625 64.375 -25.828125 C 64.375 -17.890625 61.460938 -11.347656 55.640625 -6.203125 C 49.828125 -1.054688 42.445312 1.515625 33.5 1.515625 C 24.21875 1.515625 16.703125 -1.039062 10.953125 -6.15625 Z M 24.765625 -34.59375 C 22.441406 -32.3125 21.28125 -29.390625 21.28125 -25.828125 C 21.28125 -22.265625 22.390625 -19.351562 24.609375 -17.09375 C 26.835938 -14.84375 29.765625 -13.71875 33.390625 -13.71875 C 36.890625 -13.71875 39.765625 -14.859375 42.015625 -17.140625 C 44.273438 -19.429688 45.40625 -22.328125 45.40625 -25.828125 C 45.40625 -29.390625 44.242188 -32.3125 41.921875 -34.59375 C 39.597656 -36.882812 36.753906 -38.03125 33.390625 -38.03125 C 29.960938 -38.03125 27.085938 -36.882812 24.765625 -34.59375 Z M 24.765625 -34.59375 "/></g></g></g><g fill="#f18d21" fill-opacity="1"><g transform="translate(133.188882, 90.701789)"><g><path d="M 6.046875 0 L 6.046875 -51.75 L 23.90625 -51.75 L 23.90625 -44.296875 L 24.109375 -44.296875 C 24.242188 -44.554688 24.460938 -44.890625 24.765625 -45.296875 C 25.066406 -45.703125 25.722656 -46.410156 26.734375 -47.421875 C 27.742188 -48.429688 28.816406 -49.335938 29.953125 -50.140625 C 31.097656 -50.953125 32.578125 -51.675781 34.390625 -52.3125 C 36.210938 -52.945312 38.066406 -53.265625 39.953125 -53.265625 C 41.898438 -53.265625 43.816406 -52.992188 45.703125 -52.453125 C 47.585938 -51.921875 48.96875 -51.382812 49.84375 -50.84375 L 51.25 -50.046875 L 43.78125 -34.90625 C 41.5625 -36.789062 38.46875 -37.734375 34.5 -37.734375 C 32.351562 -37.734375 30.503906 -37.257812 28.953125 -36.3125 C 27.410156 -35.375 26.316406 -34.234375 25.671875 -32.890625 C 25.035156 -31.546875 24.582031 -30.398438 24.3125 -29.453125 C 24.039062 -28.515625 23.90625 -27.773438 23.90625 -27.234375 L 23.90625 0 Z M 6.046875 0 "/></g></g></g><g fill="#f18d21" fill-opacity="1"><g transform="translate(175.559383, 90.701789)"><g><path d="M 58.421875 -23.40625 L 20.890625 -23.40625 C 20.890625 -19.769531 22.066406 -17.078125 24.421875 -15.328125 C 26.773438 -13.585938 29.328125 -12.71875 32.078125 -12.71875 C 34.972656 -12.71875 37.257812 -13.101562 38.9375 -13.875 C 40.625 -14.644531 42.539062 -16.175781 44.6875 -18.46875 L 57.609375 -12 C 52.222656 -2.988281 43.273438 1.515625 30.765625 1.515625 C 22.960938 1.515625 16.269531 -1.15625 10.6875 -6.5 C 5.113281 -11.851562 2.328125 -18.296875 2.328125 -25.828125 C 2.328125 -33.359375 5.113281 -39.8125 10.6875 -45.1875 C 16.269531 -50.570312 22.960938 -53.265625 30.765625 -53.265625 C 38.972656 -53.265625 45.648438 -50.894531 50.796875 -46.15625 C 55.941406 -41.414062 58.515625 -34.640625 58.515625 -25.828125 C 58.515625 -24.617188 58.484375 -23.8125 58.421875 -23.40625 Z M 21.390625 -33.296875 L 41.0625 -33.296875 C 40.65625 -35.984375 39.59375 -38.050781 37.875 -39.5 C 36.164062 -40.945312 33.96875 -41.671875 31.28125 -41.671875 C 28.320312 -41.671875 25.96875 -40.894531 24.21875 -39.34375 C 22.46875 -37.800781 21.523438 -35.785156 21.390625 -33.296875 Z M 21.390625 -33.296875 "/></g></g></g><g fill="#f18d21" fill-opacity="1"><g transform="translate(228.522743, 90.701789)"><g/></g></g><g fill="#f18d21" fill-opacity="1"><g transform="translate(248.194271, 90.701789)"><g><path d="M 6.046875 0 L 6.046875 -51.75 L 23.90625 -51.75 L 23.90625 -46.3125 L 24.109375 -46.3125 C 28.753906 -50.945312 33.695312 -53.265625 38.9375 -53.265625 C 41.5 -53.265625 44.039062 -52.925781 46.5625 -52.25 C 49.082031 -51.582031 51.503906 -50.539062 53.828125 -49.125 C 56.148438 -47.71875 58.03125 -45.71875 59.46875 -43.125 C 60.914062 -40.539062 61.640625 -37.53125 61.640625 -34.09375 L 61.640625 0 L 43.78125 0 L 43.78125 -29.265625 C 43.78125 -31.953125 42.921875 -34.300781 41.203125 -36.3125 C 39.492188 -38.332031 37.257812 -39.34375 34.5 -39.34375 C 31.8125 -39.34375 29.375 -38.300781 27.1875 -36.21875 C 25 -34.132812 23.90625 -31.816406 23.90625 -29.265625 L 23.90625 0 Z M 6.046875 0 "/></g></g></g><g fill="#f18d21" fill-opacity="1"><g transform="translate(307.008915, 90.701789)"><g><path d="M 3.734375 12.71875 L 18.359375 5.546875 C 21.046875 9.984375 25.722656 12.203125 32.390625 12.203125 C 35.484375 12.203125 38.359375 11.207031 41.015625 9.21875 C 43.671875 7.238281 45 4.195312 45 0.09375 L 45 -3.734375 C 41.832031 -0.234375 36.179688 1.515625 28.046875 1.515625 C 20.578125 1.515625 14.421875 -1.125 9.578125 -6.40625 C 4.742188 -11.6875 2.328125 -18.160156 2.328125 -25.828125 C 2.328125 -33.492188 4.742188 -39.984375 9.578125 -45.296875 C 14.421875 -50.609375 20.578125 -53.265625 28.046875 -53.265625 C 34.703125 -53.265625 40.25 -51.210938 44.6875 -47.109375 L 45 -47.109375 L 45 -51.75 L 62.859375 -51.75 L 62.859375 1.40625 C 62.859375 9.820312 60.066406 16.316406 54.484375 20.890625 C 48.898438 25.460938 41.535156 27.75 32.390625 27.75 C 17.585938 27.75 8.035156 22.738281 3.734375 12.71875 Z M 24.765625 -34.59375 C 22.441406 -32.3125 21.28125 -29.390625 21.28125 -25.828125 C 21.28125 -22.265625 22.390625 -19.351562 24.609375 -17.09375 C 26.835938 -14.84375 29.765625 -13.71875 33.390625 -13.71875 C 36.890625 -13.71875 39.765625 -14.859375 42.015625 -17.140625 C 44.273438 -19.429688 45.40625 -22.328125 45.40625 -25.828125 C 45.40625 -29.390625 44.242188 -32.3125 41.921875 -34.59375 C 39.597656 -36.882812 36.753906 -38.03125 33.390625 -38.03125 C 29.960938 -38.03125 27.085938 -36.882812 24.765625 -34.59375 Z M 24.765625 -34.59375 "/></g></g></g></g></g></g><g fill="#000000" fill-opacity="1"><g transform="translate(-3.204013, 204.768025)"><g><path d="M 29 -54.125 C 32.007812 -54.125 34.984375 -53.78125 37.921875 -53.09375 C 40.859375 -52.40625 43.046875 -51.722656 44.484375 -51.046875 L 46.640625 -50.015625 L 40.6875 -38.125 C 36.59375 -40.3125 32.695312 -41.40625 29 -41.40625 C 26.957031 -41.40625 25.507812 -41.179688 24.65625 -40.734375 C 23.800781 -40.296875 23.375 -39.460938 23.375 -38.234375 C 23.375 -37.960938 23.40625 -37.6875 23.46875 -37.40625 C 23.539062 -37.132812 23.675781 -36.878906 23.875 -36.640625 C 24.082031 -36.398438 24.269531 -36.191406 24.4375 -36.015625 C 24.613281 -35.847656 24.90625 -35.660156 25.3125 -35.453125 C 25.726562 -35.253906 26.054688 -35.101562 26.296875 -35 C 26.535156 -34.894531 26.925781 -34.738281 27.46875 -34.53125 C 28.019531 -34.332031 28.429688 -34.179688 28.703125 -34.078125 C 28.972656 -33.972656 29.429688 -33.816406 30.078125 -33.609375 C 30.734375 -33.410156 31.226562 -33.273438 31.5625 -33.203125 C 33.6875 -32.585938 35.535156 -31.90625 37.109375 -31.15625 C 38.679688 -30.40625 40.335938 -29.378906 42.078125 -28.078125 C 43.816406 -26.785156 45.164062 -25.144531 46.125 -23.15625 C 47.082031 -21.175781 47.5625 -18.925781 47.5625 -16.40625 C 47.5625 -4.445312 39.257812 1.53125 22.65625 1.53125 C 18.894531 1.53125 15.320312 0.953125 11.9375 -0.203125 C 8.5625 -1.367188 6.117188 -2.53125 4.609375 -3.6875 L 2.359375 -5.53125 L 9.734375 -17.9375 C 10.285156 -17.457031 11.003906 -16.890625 11.890625 -16.234375 C 12.773438 -15.585938 14.378906 -14.703125 16.703125 -13.578125 C 19.023438 -12.453125 21.039062 -11.890625 22.75 -11.890625 C 26.507812 -11.890625 28.390625 -13.15625 28.390625 -15.6875 C 28.390625 -16.84375 27.910156 -17.742188 26.953125 -18.390625 C 25.992188 -19.046875 24.367188 -19.78125 22.078125 -20.59375 C 19.796875 -21.414062 18.003906 -22.171875 16.703125 -22.859375 C 13.421875 -24.566406 10.820312 -26.492188 8.90625 -28.640625 C 7 -30.796875 6.046875 -33.648438 6.046875 -37.203125 C 6.046875 -42.535156 8.113281 -46.6875 12.25 -49.65625 C 16.382812 -52.632812 21.96875 -54.125 29 -54.125 Z M 29 -54.125 "/></g></g></g><g fill="#000000" fill-opacity="1"><g transform="translate(39.229313, 204.768025)"><g><path d="M 9.21875 -52.578125 L 9.21875 -72.15625 L 27.375 -72.15625 L 27.375 -52.578125 L 38.4375 -52.578125 L 38.4375 -38.75 L 27.375 -38.75 L 27.375 -22.03125 C 27.375 -17.1875 28.738281 -14.765625 31.46875 -14.765625 C 32.15625 -14.765625 32.875 -14.898438 33.625 -15.171875 C 34.375 -15.441406 34.953125 -15.710938 35.359375 -15.984375 L 35.984375 -16.40625 L 40.484375 -1.75 C 36.585938 0.4375 32.144531 1.53125 27.15625 1.53125 C 23.738281 1.53125 20.800781 0.9375 18.34375 -0.25 C 15.882812 -1.445312 14.019531 -3.050781 12.75 -5.0625 C 11.488281 -7.082031 10.582031 -9.203125 10.03125 -11.421875 C 9.488281 -13.648438 9.21875 -16.023438 9.21875 -18.546875 L 9.21875 -38.75 L 1.640625 -38.75 L 1.640625 -52.578125 Z M 9.21875 -52.578125 "/></g></g></g><g fill="#000000" fill-opacity="1"><g transform="translate(71.720313, 204.768025)"><g><path d="M 11.125 -6.25 C 5.28125 -11.445312 2.359375 -18.109375 2.359375 -26.234375 C 2.359375 -34.367188 5.398438 -41.050781 11.484375 -46.28125 C 17.566406 -51.507812 25.082031 -54.125 34.03125 -54.125 C 42.84375 -54.125 50.269531 -51.488281 56.3125 -46.21875 C 62.363281 -40.957031 65.390625 -34.296875 65.390625 -26.234375 C 65.390625 -18.171875 62.429688 -11.523438 56.515625 -6.296875 C 50.609375 -1.078125 43.113281 1.53125 34.03125 1.53125 C 24.601562 1.53125 16.96875 -1.0625 11.125 -6.25 Z M 25.15625 -35.15625 C 22.800781 -32.832031 21.625 -29.859375 21.625 -26.234375 C 21.625 -22.617188 22.75 -19.664062 25 -17.375 C 27.257812 -15.082031 30.234375 -13.9375 33.921875 -13.9375 C 37.472656 -13.9375 40.394531 -15.097656 42.6875 -17.421875 C 44.976562 -19.742188 46.125 -22.679688 46.125 -26.234375 C 46.125 -29.859375 44.941406 -32.832031 42.578125 -35.15625 C 40.222656 -37.476562 37.335938 -38.640625 33.921875 -38.640625 C 30.441406 -38.640625 27.519531 -37.476562 25.15625 -35.15625 Z M 25.15625 -35.15625 "/></g></g></g><g fill="#000000" fill-opacity="1"><g transform="translate(131.475845, 204.768025)"><g><path d="M 6.15625 0 L 6.15625 -52.578125 L 24.296875 -52.578125 L 24.296875 -45 L 24.5 -45 C 24.632812 -45.269531 24.851562 -45.609375 25.15625 -46.015625 C 25.46875 -46.429688 26.132812 -47.148438 27.15625 -48.171875 C 28.1875 -49.203125 29.28125 -50.125 30.4375 -50.9375 C 31.601562 -51.757812 33.109375 -52.492188 34.953125 -53.140625 C 36.796875 -53.796875 38.675781 -54.125 40.59375 -54.125 C 42.570312 -54.125 44.515625 -53.847656 46.421875 -53.296875 C 48.335938 -52.753906 49.742188 -52.207031 50.640625 -51.65625 L 52.0625 -50.84375 L 44.484375 -35.46875 C 42.234375 -37.375 39.09375 -38.328125 35.0625 -38.328125 C 32.875 -38.328125 30.992188 -37.847656 29.421875 -36.890625 C 27.847656 -35.941406 26.734375 -34.78125 26.078125 -33.40625 C 25.429688 -32.039062 24.972656 -30.878906 24.703125 -29.921875 C 24.429688 -28.972656 24.296875 -28.222656 24.296875 -27.671875 L 24.296875 0 Z M 6.15625 0 "/></g></g></g><g fill="#000000" fill-opacity="1"><g transform="translate(174.524164, 204.768025)"><g><path d="M 59.34375 -23.78125 L 21.21875 -23.78125 C 21.21875 -20.09375 22.410156 -17.359375 24.796875 -15.578125 C 27.191406 -13.804688 29.789062 -12.921875 32.59375 -12.921875 C 35.53125 -12.921875 37.851562 -13.3125 39.5625 -14.09375 C 41.269531 -14.875 43.21875 -16.425781 45.40625 -18.75 L 58.53125 -12.203125 C 53.0625 -3.046875 43.972656 1.53125 31.265625 1.53125 C 23.335938 1.53125 16.535156 -1.179688 10.859375 -6.609375 C 5.191406 -12.046875 2.359375 -18.585938 2.359375 -26.234375 C 2.359375 -33.890625 5.191406 -40.453125 10.859375 -45.921875 C 16.535156 -51.390625 23.335938 -54.125 31.265625 -54.125 C 39.597656 -54.125 46.378906 -51.710938 51.609375 -46.890625 C 56.835938 -42.078125 59.453125 -35.191406 59.453125 -26.234375 C 59.453125 -25.003906 59.414062 -24.1875 59.34375 -23.78125 Z M 21.734375 -33.828125 L 41.71875 -33.828125 C 41.3125 -36.554688 40.234375 -38.65625 38.484375 -40.125 C 36.742188 -41.59375 34.507812 -42.328125 31.78125 -42.328125 C 28.769531 -42.328125 26.375 -41.539062 24.59375 -39.96875 C 22.820312 -38.40625 21.867188 -36.359375 21.734375 -33.828125 Z M 21.734375 -33.828125 "/></g></g></g><g fill="#000000" fill-opacity="1"><g transform="translate(228.3348, 204.768025)"><g/></g></g><g fill="#000000" fill-opacity="1"><g transform="translate(248.321021, 204.768025)"><g><path d="M 6.15625 0 L 6.15625 -52.578125 L 24.296875 -52.578125 L 24.296875 -47.046875 L 24.5 -47.046875 C 29.207031 -51.765625 34.226562 -54.125 39.5625 -54.125 C 42.15625 -54.125 44.734375 -53.78125 47.296875 -53.09375 C 49.859375 -52.40625 52.316406 -51.34375 54.671875 -49.90625 C 57.035156 -48.476562 58.953125 -46.445312 60.421875 -43.8125 C 61.890625 -41.1875 62.625 -38.128906 62.625 -34.640625 L 62.625 0 L 44.484375 0 L 44.484375 -29.71875 C 44.484375 -32.457031 43.609375 -34.847656 41.859375 -36.890625 C 40.117188 -38.941406 37.851562 -39.96875 35.0625 -39.96875 C 32.320312 -39.96875 29.84375 -38.910156 27.625 -36.796875 C 25.40625 -34.679688 24.296875 -32.320312 24.296875 -29.71875 L 24.296875 0 Z M 6.15625 0 "/></g></g></g><g fill="#000000" fill-opacity="1"><g transform="translate(308.076547, 204.768025)"><g><path d="M 3.796875 12.921875 L 18.65625 5.640625 C 21.382812 10.148438 26.132812 12.40625 32.90625 12.40625 C 36.050781 12.40625 38.972656 11.394531 41.671875 9.375 C 44.367188 7.363281 45.71875 4.273438 45.71875 0.109375 L 45.71875 -3.796875 C 42.5 -0.242188 36.757812 1.53125 28.5 1.53125 C 20.914062 1.53125 14.660156 -1.148438 9.734375 -6.515625 C 4.816406 -11.878906 2.359375 -18.453125 2.359375 -26.234375 C 2.359375 -34.023438 4.816406 -40.617188 9.734375 -46.015625 C 14.660156 -51.421875 20.914062 -54.125 28.5 -54.125 C 35.257812 -54.125 40.894531 -52.039062 45.40625 -47.875 L 45.71875 -47.875 L 45.71875 -52.578125 L 63.859375 -52.578125 L 63.859375 1.4375 C 63.859375 9.976562 61.019531 16.570312 55.34375 21.21875 C 49.675781 25.863281 42.195312 28.1875 32.90625 28.1875 C 17.875 28.1875 8.171875 23.097656 3.796875 12.921875 Z M 25.15625 -35.15625 C 22.800781 -32.832031 21.625 -29.859375 21.625 -26.234375 C 21.625 -22.617188 22.75 -19.664062 25 -17.375 C 27.257812 -15.082031 30.234375 -13.9375 33.921875 -13.9375 C 37.472656 -13.9375 40.394531 -15.097656 42.6875 -17.421875 C 44.976562 -19.742188 46.125 -22.679688 46.125 -26.234375 C 46.125 -29.859375 44.941406 -32.832031 42.578125 -35.15625 C 40.222656 -37.476562 37.335938 -38.640625 33.921875 -38.640625 C 30.441406 -38.640625 27.519531 -37.476562 25.15625 -35.15625 Z M 25.15625 -35.15625 "/></g></g></g></svg>